<?xml version="1.0" standalone="no"?>
<!DOCTYPE svg PUBLIC "-//W3C//DTD SVG 20010904//EN"
 "http://www.w3.org/TR/2001/REC-SVG-20010904/DTD/svg10.dtd">
<svg version="1.0" xmlns="http://www.w3.org/2000/svg"
 width="4020.000000pt" height="4020.000000pt" viewBox="0 0 4020.000000 4020.000000"
 preserveAspectRatio="xMidYMid meet">

<g transform="translate(0.000000,4020.000000) scale(0.100000,-0.100000)"
fill="#246e46" stroke="none">
<path d="M24037 29220 c-54 -4 -99 -9 -101 -11 -37 -54 -129 -260 -182 -409
-75 -210 -151 -523 -194 -808 -187 -1230 20 -2757 599 -4414 43 -123 101 -279
130 -347 589 -1396 1969 -2745 3766 -3678 1794 -933 3840 -1364 5730 -1207
646 53 1270 171 1880 355 187 57 250 79 180 65 -108 -22 -549 -89 -750 -115
-711 -90 -1325 -128 -1930 -118 -770 13 -1330 83 -1860 232 -149 42 -403 130
-437 151 -15 10 36 90 92 144 214 205 681 347 1337 405 92 8 359 22 593 30
569 20 790 36 1040 77 489 79 711 218 712 446 2 205 -147 451 -605 1002 -671
808 -1009 1146 -1420 1420 -407 272 -811 412 -1330 461 -257 24 -685 3 -1027
-52 -736 -116 -1648 -407 -2715 -866 -121 -52 -227 -97 -235 -100 -8 -3 1 12
22 33 227 242 477 611 660 974 228 454 370 908 438 1405 70 509 39 1126 -79
1568 -266 995 -1041 2047 -1971 2675 -329 222 -688 400 -1035 514 -426 139
-894 199 -1308 168z"/>
<path d="M8841 21214 c-225 -33 -387 -89 -493 -172 -297 -230 -1275 -1124
-2000 -1828 -314 -305 -669 -670 -831 -854 -545 -620 -839 -1160 -922 -1695
-25 -160 -16 -439 18 -585 60 -251 141 -397 319 -572 306 -301 823 -539 1603
-738 378 -96 630 -184 840 -294 189 -98 271 -163 309 -245 29 -65 28 -222 -3
-339 -37 -140 -167 -436 -278 -636 -346 -621 -871 -1146 -1446 -1446 -210
-109 -358 -160 -523 -180 -119 -14 -159 -1 -170 55 -39 209 424 997 1167 1990
254 339 359 508 359 576 0 31 -1 32 -40 26 -75 -10 -211 -105 -505 -351 -550
-462 -1113 -1021 -1258 -1249 -102 -159 -194 -386 -246 -602 -31 -130 -43
-228 -43 -368 -1 -205 43 -353 143 -484 174 -225 544 -303 1015 -212 252 48
604 192 889 363 509 307 1008 771 1369 1275 237 331 402 671 451 931 18 99 21
282 5 372 -47 266 -207 547 -424 744 -295 267 -696 445 -1531 678 -581 163
-741 222 -870 319 -243 182 -258 472 -46 892 104 206 280 456 495 705 391 452
908 925 1886 1725 107 88 307 254 444 370 428 363 613 501 781 583 106 52 175
71 300 82 58 5 117 16 132 24 76 41 133 118 170 230 22 70 26 99 27 211 1 98
-3 145 -17 190 -90 306 -301 470 -660 515 -110 14 -301 11 -416 -6z"/>
<path d="M17143 20714 c-52 -19 -111 -76 -140 -134 -12 -25 -52 -117 -89 -205
-152 -361 -492 -1059 -695 -1425 -195 -351 -469 -885 -979 -1910 -291 -586
-581 -1166 -642 -1290 l-113 -224 -343 -123 c-619 -220 -1357 -501 -1702 -648
-74 -31 -196 -88 -270 -126 -74 -38 -143 -69 -153 -69 -48 0 7 92 185 310 104
126 121 164 116 255 -4 85 -36 159 -97 228 -32 35 -50 47 -71 47 -64 0 -294
-93 -1010 -410 -434 -192 -650 -283 -702 -295 -24 -6 -28 -4 -28 14 0 105 270
367 615 598 229 153 462 289 667 388 92 45 131 59 186 65 105 11 162 61 162
142 0 27 -11 43 -66 95 -168 159 -455 234 -808 212 -265 -17 -443 -72 -705
-220 -311 -175 -578 -376 -812 -609 -177 -177 -262 -285 -339 -433 -63 -120
-88 -200 -101 -322 -26 -231 40 -426 195 -581 148 -148 386 -245 565 -231 116
9 735 245 989 378 73 38 134 69 136 69 2 0 -2 -21 -10 -47 -98 -325 134 -577
531 -576 181 0 240 23 840 321 608 302 1243 643 1594 854 62 38 115 68 117 66
1 -2 -177 -364 -396 -805 -219 -441 -405 -821 -412 -845 -8 -28 -13 -100 -12
-208 0 -143 4 -181 28 -285 77 -333 218 -551 370 -571 57 -8 110 17 188 86
106 94 208 232 612 827 124 182 156 219 156 179 0 -16 65 -78 117 -110 84 -51
222 -95 403 -128 52 -9 164 -13 360 -13 291 1 453 15 680 61 444 89 837 298
1169 619 343 332 600 749 760 1231 133 401 153 675 71 951 -77 255 -274 444
-535 513 -122 33 -295 37 -416 12 -283 -60 -655 -273 -1059 -606 -325 -267
-709 -656 -1014 -1024 -65 -78 -119 -142 -121 -142 -5 0 130 361 199 527 367
895 1066 2342 1909 3953 233 445 405 767 501 940 l81 145 0 76 c0 65 -4 83
-34 141 -44 89 -131 174 -231 227 -161 86 -310 118 -397 85z m-108 -5460 c24
-10 45 -58 45 -107 0 -141 -157 -435 -384 -720 -103 -128 -343 -377 -476 -491
-306 -264 -602 -435 -889 -513 -87 -23 -117 -26 -312 -29 -119 -2 -228 -8
-243 -14 -14 -5 -26 -7 -26 -4 0 11 235 319 329 433 220 263 530 565 839 815
517 418 983 681 1117 630z"/>
<path d="M24817 18590 c-15 -12 -27 -28 -27 -36 0 -21 -84 -185 -147 -288
-148 -240 -354 -477 -688 -791 -293 -276 -327 -318 -329 -400 -3 -132 183
-160 492 -74 264 73 504 239 832 576 154 157 201 217 259 323 81 152 94 306
35 431 -45 95 -136 188 -227 232 -96 47 -163 56 -200 27z"/>
<path d="M29350 17538 c-188 -40 -555 -151 -584 -177 -69 -60 -60 -257 23
-490 69 -192 114 -266 184 -299 93 -44 211 -38 384 20 113 37 203 89 359 206
148 111 165 129 171 184 4 40 0 49 -61 136 -36 51 -97 139 -135 195 -89 132
-141 190 -194 216 -47 23 -76 24 -147 9z"/>
<path d="M26565 16694 c-268 -27 -517 -120 -693 -259 -177 -140 -349 -390
-424 -615 -53 -158 -63 -223 -63 -415 1 -164 3 -190 29 -288 15 -60 26 -110
24 -111 -30 -23 -575 -333 -883 -503 -754 -416 -1333 -703 -1418 -703 -82 0
-64 156 48 431 85 209 286 591 403 766 83 126 122 165 219 219 108 61 167 115
182 169 38 139 -29 278 -233 480 -238 235 -363 259 -540 104 -77 -68 -242
-264 -316 -377 -75 -113 -236 -423 -325 -627 -157 -358 -290 -755 -351 -1050
-37 -174 -39 -384 -6 -517 80 -321 305 -527 576 -528 89 0 169 21 284 75 291
138 1006 620 1792 1210 96 72 180 134 185 137 6 4 -42 -46 -105 -110 -183
-186 -275 -321 -345 -506 -46 -123 -66 -213 -72 -326 -7 -115 6 -168 51 -218
19 -20 68 -80 110 -132 200 -247 401 -350 681 -350 152 0 275 29 417 100 243
121 416 332 507 617 87 274 93 619 17 967 -14 61 -27 136 -30 166 l-6 55 93
64 c592 413 1247 814 1705 1045 91 47 152 83 152 92 0 24 -45 34 -148 34 -263
-1 -628 -92 -957 -237 -143 -63 -511 -254 -715 -370 l-175 -100 -3 56 c-4 66
13 236 35 336 38 180 158 423 278 563 43 50 133 121 190 149 57 29 162 53 231
53 77 0 128 15 165 48 61 55 58 179 -7 277 -61 93 -153 125 -374 130 -80 2
-163 1 -185 -1z m-1043 -2044 c-23 -16 -44 -30 -47 -30 -12 0 61 59 74 60 8 0
-5 -13 -27 -30z m142 -552 c17 -78 46 -372 46 -464 0 -123 -23 -204 -80 -295
-70 -108 -208 -196 -354 -226 l-80 -16 -42 45 c-57 61 -68 105 -54 211 33 241
181 463 465 700 44 36 83 66 87 67 4 0 10 -10 12 -22z"/>
<path d="M20125 16521 c-103 -37 -352 -207 -430 -293 -62 -68 -89 -129 -125
-276 -36 -147 -95 -313 -150 -422 -23 -45 -120 -224 -217 -398 -498 -897 -709
-1390 -768 -1797 -36 -247 4 -433 117 -542 58 -57 101 -73 194 -73 182 0 506
167 695 359 141 144 162 199 248 641 33 168 127 456 221 675 49 114 183 380
266 529 l39 68 200 95 c110 53 235 111 278 130 139 62 249 54 316 -22 40 -46
51 -91 51 -216 0 -93 3 -111 26 -157 63 -127 296 -253 516 -280 183 -23 235
38 245 288 3 69 0 181 -7 250 -23 250 -23 410 0 685 30 349 19 447 -53 513
-115 106 -383 -9 -972 -415 -209 -144 -192 -140 -141 -32 24 52 52 119 62 149
22 67 24 167 4 204 -17 33 -75 68 -154 96 -97 33 -155 71 -201 130 -56 72 -82
96 -127 115 -47 19 -71 19 -133 -4z"/>
<path d="M32070 16209 c-223 -13 -357 -47 -548 -139 -336 -162 -705 -424 -972
-690 -250 -249 -387 -469 -427 -685 l-15 -82 -332 -181 c-759 -413 -1205 -632
-1287 -632 -14 0 -32 7 -39 15 -19 23 -15 111 9 199 77 280 419 940 577 1116
19 21 72 59 118 85 108 61 154 99 177 149 27 60 25 148 -5 213 -75 161 -283
380 -436 459 -79 41 -165 41 -235 0 -98 -58 -293 -274 -414 -460 -263 -405
-591 -1237 -677 -1716 -35 -197 -19 -426 41 -579 117 -300 396 -465 670 -396
130 32 411 191 800 451 280 188 745 518 1025 729 52 39 100 74 106 78 6 4 30
-18 56 -51 124 -160 415 -294 606 -280 113 9 685 225 967 365 71 36 136 70
143 75 21 17 22 5 6 -52 -34 -130 -12 -274 56 -368 134 -181 471 -250 734
-150 315 120 1590 780 2166 1121 242 143 427 284 576 439 207 213 261 358 135
358 -55 0 -469 -142 -1151 -395 -781 -290 -1230 -472 -1446 -586 -106 -56
-154 -71 -154 -49 0 30 92 162 230 330 80 96 93 128 94 215 0 55 -6 82 -26
127 -34 74 -112 158 -146 158 -61 0 -336 -112 -1084 -443 -422 -187 -615 -267
-641 -267 -24 0 -21 19 15 91 96 193 624 588 1160 869 158 82 202 99 287 110
94 12 156 67 154 136 -1 29 -10 46 -45 81 -121 126 -332 213 -548 228 -47 3
-103 7 -125 9 -22 1 -92 -1 -155 -5z"/>
</g>
</svg>
